<?xml version="1.0" encoding="utf-8"?>
<!-- Generator: Adobe Illustrator 16.0.0, SVG Export Plug-In . SVG Version: 6.00 Build 0)  -->
<!DOCTYPE svg PUBLIC "-//W3C//DTD SVG 1.1//EN" "http://www.w3.org/Graphics/SVG/1.1/DTD/svg11.dtd">
<svg version="1.1" id="Layer_1" xmlns="http://www.w3.org/2000/svg" xmlns:xlink="http://www.w3.org/1999/xlink" x="0px" y="0px"
	 width="1944px" height="2592px" viewBox="0 0 1944 2592" enable-background="new 0 0 1944 2592" xml:space="preserve">
<title>large gray city skyline</title>
<g>
	<title>Layer 1</title>
	<path id="path2177" fill="#3E3947" d="M-5.508,2302.667c0-326.694,0.19-409.366,0.94-409.502c0.517-0.095,2.222-0.452,3.789-0.796
		c2.107-0.461,2.793-0.283,2.633,0.683c-0.119,0.718,0.468,1.802,1.304,2.407c0.86,0.624,1.408,1.877,1.261,2.885
		c-0.286,1.959,2.4,2.593,3.235,0.765c0.255-0.561,0.106-1.019-0.332-1.019s-0.797-0.459-0.797-1.019c0-0.561,1.208-1.02,2.684-1.02
		c2.321,0,2.62,0.27,2.216,1.994c-0.378,1.612,0.003,2.16,1.993,2.857c1.721,0.604,2.592,1.613,2.895,3.354
		c0.593,3.402,2.563,3.188,2.861-0.312c0.131-1.54,0.639-2.802,1.128-2.803c0.604-0.002,0.89,2.374,0.89,7.386
		c0,6.708,0.139,7.387,1.504,7.387c0.996,0,1.587-0.79,1.749-2.337c0.183-1.746,0.594-2.186,1.629-1.74
		c0.761,0.327,1.594,0.136,1.851-0.428c0.307-0.673,1.1-0.63,2.323,0.125c1.021,0.63,2.02,0.925,2.219,0.654
		c0.616-0.834,0.671-7.338,0.085-10.115c-0.518-2.452-0.406-2.604,1.606-2.205c1.343,0.267,2.521-0.155,3.11-1.117
		c0.839-1.369,1.114-1.321,2.401,0.423c1.841,2.493,1.864,3.961,0.053,3.32c-1.795-0.636-2.782,3.606-1.305,5.608
		c0.83,1.124,1.288,1.134,2.564,0.055c1.197-1.013,1.951-1.045,3.292-0.142c3.288,2.215,12.899,3.124,17.157,1.623
		c2.135-0.752,2.679-1.478,2.88-3.839c0.137-1.602-0.354-4.427-1.09-6.278c-1.213-3.052-1.23-3.542-0.175-5.203
		c0.641-1.009,1.375-2.636,1.631-3.616c0.572-2.187,1.708-2.312,2.29-0.255c0.239,0.841,0.782,1.528,1.209,1.528
		c0.996,0,1.015-3.755,0.023-4.584c-1.303-1.092-0.817-2.547,0.85-2.547c1.455,0,1.567-0.424,1.221-4.583
		c-0.454-5.449-1.613-7.641-4.043-7.641c-0.983,0-1.788-0.458-1.788-1.019s0.652-1.019,1.449-1.019s2.105-1.129,2.905-2.506
		c1.279-2.201,1.625-2.34,2.847-1.13c1.219,1.207,1.259,1.594,0.319,3.127c-0.936,1.526-0.909,1.908,0.217,3.023
		c1.509,1.495,1.688,6.387,0.375,10.29c-0.816,2.426-0.719,2.928,0.917,4.722c1.537,1.686,2.495,1.897,5.989,1.325
		c2.288-0.374,4.951-1.368,5.917-2.207c2.594-2.254,2.851-0.891,0.535,2.839l-2.032,3.271l3.842,2.56
		c3.555,2.368,3.935,2.437,5.071,0.898c0.959-1.298,1.034-1.978,0.343-3.105c-0.487-0.794-0.827-2.307-0.756-3.362
		c0.342-5.118-0.137-7.521-1.5-7.521c-1.867,0-6.132-2.948-6.132-4.238c0-0.636,1.122-0.777,2.917-0.366
		c2.753,0.629,2.962,0.492,3.721-2.458c0.866-3.366,1.627-3.747,4.021-2.011c1.074,0.778,1.773,0.79,2.327,0.041
		c1.065-1.443,7.25-0.247,9.357,1.809c1.031,1.006,1.51,2.297,1.265,3.404c-0.217,0.979-0.033,1.782,0.408,1.782
		s0.803-0.636,0.803-1.413c0-1.717,4.232-2.733,6.522-1.568c2.18,1.111,3.798-1.253,2.136-3.12
		c-0.625-0.703-1.137-2.197-1.137-3.319c0-1.723-0.351-1.945-2.256-1.429c-1.7,0.461-2.256,0.237-2.256-0.907
		c0-1.048-0.675-1.448-2.181-1.293c-2.702,0.278-4.733-1.868-4.437-4.688c0.181-1.708,0.67-2.062,2.481-1.797
		c1.241,0.184,2.849,1.056,3.572,1.941c1.711,2.093,1.711,0.747,0-1.665c-1.225-1.728-2.612-2.402-7.906-3.841
		c-2.697-0.734-3.29-2.156-1.76-4.229c1.011-1.37,1.492-1.442,2.711-0.412c2.348,1.986,3.007,1.514,2.518-1.803
		c-0.338-2.286-0.173-3.056,0.654-3.056c1.617,0,4.009,3.985,3.736,6.222c-0.178,1.453,0.218,1.928,1.604,1.928
		c1.208,0,1.975,0.7,2.233,2.037c0.529,2.736,2.791,2.658,2.791-0.095c0-1.276-0.604-2.347-1.504-2.666
		c-0.828-0.292-1.504-0.899-1.504-1.349s-0.195-1.506-0.434-2.348c-0.294-1.037,0.109-1.638,1.256-1.866
		c1.07-0.211,2.333-1.901,3.438-4.599c1.598-3.9,1.644-4.402,0.548-5.886c-1.009-1.367-1.039-1.881-0.191-3.265
		c0.661-1.078,1.104-5.48,1.289-12.798l0.282-11.156l2.17-1.024c1.194-0.564,2.213-1.439,2.265-1.945
		c0.052-0.504,0.177-2.179,0.278-3.72c0.102-1.541,0.55-8.198,0.997-14.795c0.447-6.598,0.617-14.23,0.378-16.963
		c-0.43-4.922,0.31-16.985,0.985-16.069c0.193,0.261,0.483,8.207,0.644,17.657c0.161,9.451,0.314,17.354,0.339,17.562
		c0.025,0.209,0.568-0.208,1.208-0.926c0.781-0.879,1.013-2.223,0.708-4.103c-0.264-1.625-0.098-3.095,0.395-3.507
		c0.576-0.482,0.683-2.795,0.332-7.228c-0.358-4.536-0.259-6.518,0.325-6.518c0.462,0,0.84-0.923,0.84-2.052
		c0-1.127,0.423-2.976,0.94-4.105c0.775-1.692,0.742-2.225-0.188-3.026c-0.874-0.753-0.661-0.976,0.94-0.987
		c1.138-0.01,2.028-0.359,1.979-0.779c-0.049-0.421-0.044-1.452,0.012-2.292c0.089-1.359,0.182-1.359,0.83,0
		c0.623,1.306,0.731,1.268,0.741-0.256c0.006-0.98,0.499-1.782,1.095-1.782c1.57,0,2.194-1.897,1.172-3.565
		c-1.193-1.947-0.312-3.565,1.942-3.565c1.804,0,1.82-0.067,0.622-2.546c-1.01-2.087-1.041-2.547-0.169-2.547
		c0.585,0,2.468-1.827,4.185-4.062c1.717-2.233,3.328-3.609,3.581-3.056c0.768,1.683,2.466,1.123,2.354-0.777
		c-0.074-1.259,0.447-1.782,1.776-1.782c1.543,0,1.917,0.549,2.082,3.057c0.316,4.804,1.809,11.714,2.529,11.714
		c0.359,0,0.654-0.631,0.654-1.403c0-0.771,0.535-2.004,1.189-2.738c0.691-0.778,1.049-2.317,0.857-3.684
		c-0.398-2.824,1.449-5.501,2.132-3.09c0.24,0.846,0.36,2.158,0.267,2.916c-0.216,1.756,0.844,5.229,1.893,6.201
		c0.542,0.503,0.499,0.754-0.133,0.765c-0.517,0.008-0.94,0.932-0.94,2.053c0,1.12,0.255,2.037,0.568,2.037s1.04,1.489,1.616,3.311
		c1.508,4.762,2.451,6.218,3.102,4.79c0.325-0.713,0.712-0.188,0.997,1.352c0.648,3.494,3.165,4.556,13.647,5.757
		c12.275,1.407,22.238,3.049,23.153,3.814c0.499,0.418,0.577,10.379,0.229,29.26c-0.45,24.456-0.364,28.922,0.586,30.663
		c0.983,1.8,0.981,2.234-0.014,3.729c-1.586,2.381-1.036,7.358,0.866,7.835c0.827,0.207,1.787,1.043,2.133,1.856
		s1.361,1.862,2.256,2.331c1.499,0.784,1.52,0.911,0.263,1.597c-0.955,0.522-1.7,0.096-2.486-1.426
		c-1.469-2.84-3.271-2.776-3.384,0.121c-0.598,15.39-0.509,21.237,0.316,20.87c0.496-0.221,1.01-1.397,1.142-2.614
		c0.153-1.408,0.776-2.212,1.716-2.212c1.505,0,1.714-0.446,2.508-5.349c0.367-2.27,0.866-2.801,2.632-2.801
		c1.199,0,2.304-0.506,2.456-1.124c0.152-0.618,0.709,1.159,1.237,3.951l0.96,5.074l3.841,0.5c4.163,0.542,5.845,2.451,5.845,6.632
		c0,1.977,0.283,2.3,1.54,1.759c1.677-0.72,3.725,0.999,3.725,3.127c0,0.734-0.677,1.626-1.504,1.981
		c-2.191,0.943-1.84,2.544,0.564,2.57l2.068,0.022l-1.88,2.007c-1.594,1.701-1.708,2.161-0.752,3.018
		c0.621,0.557,2.343,1.018,3.828,1.026c2.156,0.013,2.873-0.497,3.557-2.531c0.644-1.913,1.468-2.574,3.317-2.662
		c4.459-0.211,6.452-0.748,8.758-2.363c3.502-2.453,4.455-2.018,5.453,2.495c0.725,3.275,1.181,3.972,2.292,3.494
		c0.763-0.328,3.287,0.582,5.609,2.021c2.322,1.44,4.652,2.619,5.178,2.619c1.284,0,1.798,2.086,1.332,5.396
		c-0.606,4.297,0.197,6.128,2.088,4.758c1.346-0.976,1.499-1.728,1.062-5.223c-0.43-3.442-0.263-4.317,1.059-5.572
		c0.862-0.818,1.849-2.957,2.193-4.753c0.784-4.097,2.38-4.183,3.885-0.209c0.636,1.681,1.228,3.229,1.314,3.438
		c0.219,0.534,3.971,0.479,4.372-0.064c0.448-0.606,3.294-120.389,4.499-189.279c0.24-13.727,0.621-26.676,0.848-28.777
		c0.445-4.135,1.776-5.268,1.794-1.528c0.006,1.261,0.329,2.973,0.717,3.803c0.561,1.2,0.934,0.782,1.814-2.036
		c0.61-1.952,1.811-4.125,2.668-4.831c0.857-0.704,1.558-2.194,1.558-3.311c0-1.888,0.509-2.028,7.333-2.018
		c10.612,0.017,12.974,0.692,12.974,3.712c0,1.682,0.6,2.749,1.929,3.434c2.679,1.379,8.397,1.243,9.062-0.215
		c0.518-1.135,0.899-15.965,2.229-86.652c0.303-16.106,0.794-29.286,1.092-29.286c0.763,0,1.758,6.03,1.597,9.678l-0.135,3.056
		l1.155-2.782c1.032-2.484,1.56-2.771,4.933-2.667c2.989,0.091,4.166-0.379,5.633-2.244c1.36-1.731,1.604-2.568,0.917-3.145
		c-0.546-0.457-1.192-0.167-1.549,0.697c-0.337,0.815-1.375,1.481-2.305,1.481c-0.931,0-2.042,0.474-2.47,1.053
		c-0.427,0.579-1.324,0.768-1.993,0.42c-1.091-0.567-1.177-3.376-0.834-27.282c0.456-31.769,0.446-32.456-0.483-33.714
		c-1.207-1.636-0.839-2.329,1.582-2.985c1.797-0.486,2.589-1.528,3.572-4.7c0.941-3.032,1.697-4.079,2.957-4.087
		c0.931-0.006,1.698,0.562,1.704,1.264c0.008,0.855,0.193,0.914,0.564,0.18c1.049-2.074,3.33-2.475,5.698-1
		c1.307,0.812,3.526,1.863,4.932,2.333c3.157,1.056,4.756,5.228,2.333,6.086c-1.922,0.681-1.961,2.333-0.055,2.333
		c2.664,0,4.03,2.973,3.479,7.568c-0.274,2.28-0.477,4.834-0.452,5.674c0.025,0.841,0.028,3.272,0.007,5.403
		c-0.027,2.806,0.439,4.444,1.688,5.935c0.949,1.134,1.371,1.826,0.938,1.541c-1.799-1.187-2.553,1.356-2.989,10.074
		c-0.937,18.787-0.507,24.368,1.946,25.237c1.45,0.513,1.687-0.351,2.459-8.972c0.151-1.68,0.325,4.134,0.387,12.922
		c0.071,10.033-0.208,17.045-0.75,18.846c-1.24,4.116-2.576,83.447-1.438,85.307c0.461,0.751,4.613,2.153,9.232,3.116
		c4.618,0.964,8.881,2.004,9.475,2.312c0.926,0.481,1.039,9.501,0.798,63.4c-0.237,52.983-0.115,63.109,0.779,64.573
		c0.583,0.955,1.562,1.476,2.174,1.157c0.617-0.32,1.547,0.261,2.087,1.306c0.536,1.036,5.022,4.3,9.969,7.254
		c7.992,4.771,9.042,5.69,9.421,8.258c0.351,2.376,0.865,2.945,2.9,3.21l2.473,0.322l0.078,50.424
		c0.043,27.733,0.127,50.97,0.188,51.636c0.06,0.667,1.379,1.354,2.93,1.527c2.579,0.29,2.858,0.623,3.256,3.882
		c0.744,6.096,1.36,1.309,1.751-13.616c0.204-7.769,0.472-14.252,0.596-14.408c0.125-0.155,3.103-0.604,6.619-0.997
		c3.516-0.394,8.254-1.014,10.53-1.381l4.137-0.666l0.376-13.345c0.251-8.954,0.705-13.88,1.377-14.975
		c0.623-1.015,2.469-1.746,4.889-1.936c3.78-0.297,3.894-0.396,4.123-3.612c0.185-2.598,1.128-4.291,4.394-7.896
		c2.287-2.522,4.38-4.611,4.653-4.643c0.272-0.03,2.018-0.27,3.879-0.53c4.394-0.617,5.093-0.604,8.472,0.167
		c4.375,0.997,5.066-0.415,5.066-10.344c0-7.604,0.172-8.64,1.672-10.062c0.919-0.872,2.979-1.587,4.578-1.587
		c2.508,0,3.018-0.398,3.72-2.917c1.14-4.091,3.322-5.594,7.77-5.351c2.714,0.148,4.119-0.257,4.814-1.393
		c0.809-1.32,1.99-1.482,6.701-0.92c3.146,0.376,6.565,1.129,7.6,1.675s3.267,1.167,4.961,1.38l3.08,0.389l0.489-12.984
		c0.269-7.142,0.49-21.321,0.492-31.51c0.001-10.188,0.324-19.666,0.716-21.063c0.48-1.709,1.394-2.647,2.791-2.868
		c2.765-0.435,3.099-2.421,3.191-18.935l0.075-13.514l2.444-1.437c1.345-0.791,3.053-1.694,3.796-2.008
		c1.101-0.464,1.26-1.237,0.856-4.148c-0.325-2.35-0.208-3.579,0.34-3.579c0.46,0,0.836,1.164,0.836,2.587
		c0,4.835,2.865,10.125,12.347,22.791c5.206,6.955,9.466,13.144,9.468,13.753c0.002,1.08,5.574,4.672,7.246,4.672
		c0.462,0,1.269-0.7,1.792-1.554c0.85-1.387,1.104-1.368,2.359,0.17c0.826,1.012,3.806,2.179,7.225,2.826l5.819,1.104l-0.297,51.697
		l-0.297,51.697l2.177,0.107c1.198,0.06,3.135,0.021,4.305-0.085c1.17-0.105,2.797,0.628,3.615,1.631
		c1.093,1.34,3.225,1.972,8.027,2.382c7.362,0.628,8.417,1.2,8.417,4.559c0,4.148,1.3,4.556,14.549,4.563
		c10.007,0.007,12.678-0.281,12.994-1.396c0.219-0.771,0.666-4.535,0.995-8.364l0.597-6.963l0.11,6.112
		c0.094,5.225,1.332,11.207,1.686,8.148c0.188-1.622,0.39-4.828,0.529-8.403c0.207-5.31,1.633-3.811,1.633,1.717
		c0,7.696,0.942,10.138,3.866,10.025c1.711-0.066,2.757,0.56,3.514,2.104c0.861,1.758,1.82,2.198,4.795,2.198
		c6.523,0,6.628,0.235,6.628,14.806c0,11.743,0.106,12.698,1.413,12.698c0.776,0,1.843-0.704,2.369-1.562
		c0.853-1.393,1.13-1.349,2.537,0.393c0.868,1.074,2.323,2.259,3.233,2.632c0.91,0.373,1.848,1.508,2.085,2.521
		c0.331,1.409,1.522,1.996,5.074,2.499c2.553,0.361,4.916,0.287,5.249-0.164c0.333-0.451,0.972-23.489,1.417-51.193
		c0.671-41.647,1-50.636,1.906-51.898c0.92-1.285,4.753-1.558,24.012-1.711c12.605-0.1,24.724-0.487,26.932-0.861
		c3.263-0.552,4.776-0.242,8.082,1.657c2.237,1.284,4.324,2.818,4.639,3.408c0.314,0.589,0.345,22.73,0.069,49.204
		c-0.343,32.838-0.256,48.131,0.273,48.131c0.512,0,0.963-14.623,1.327-43.038c0.339-26.484,0.845-43.528,1.315-44.312
		c0.42-0.701,2.064-1.274,3.654-1.274c3.333,0,4.448-1.879,4.448-7.499c0-5.691,1.403-6.759,8.891-6.775
		c7.744-0.018,9.717-0.603,10.292-3.056c0.555-2.369,6.867-3.487,17.671-3.131c13.979,0.462,14.642,0.566,14.896,2.355
		c0.445,3.131,3.526,4.671,10.737,5.367c3.897,0.378,7.73,0.93,8.52,1.229c1.388,0.526,1.419,1.758,0.984,38.602
		c-0.247,20.932-0.191,38.273,0.125,38.538c0.508,0.426,1.681-18.718,2.711-44.237c1.15-28.491,2.588-40.781,5.099-43.604
		c0.549-0.617,5.99-1.163,12.972-1.3c6.613-0.129,12.448-0.442,12.966-0.695c0.622-0.304,0.94-2.72,0.94-7.142
		c0-7.971,0.884-7.848,1.027,0.145c0.055,3.062,0.379,5.951,0.718,6.417c0.34,0.466,5.924,1.535,12.408,2.376l11.789,1.528
		l1.05,4.075c0.577,2.241,1.256,9.112,1.507,15.269l0.458,11.194l4.136,0.767c2.275,0.422,4.924,1.017,5.887,1.324l1.751,0.556
		l-0.191,63.052c-0.201,66.082-0.192,66.276,2.986,66.218c0.674-0.013,2.07-0.903,3.104-1.979l1.88-1.956l0.526-44.52
		c0.29-24.485,0.702-45.14,0.917-45.898c0.255-0.899,1.672-1.378,4.083-1.378c2.225,0,4.035-0.56,4.555-1.408
		c0.558-0.911,0.947-7.938,1.103-19.875c0.132-10.156,0.472-18.781,0.756-19.166s0.481,8.089,0.438,18.831
		c-0.044,10.742,0.135,20,0.397,20.574c0.262,0.573,2.128,1.044,4.148,1.044c2.02,0,3.902,0.505,4.184,1.122
		c0.282,0.618,0.469,5.087,0.417,9.933c-0.116,10.614,0.418,12.288,3.145,9.868c1.627-1.443,2.564-1.538,6.198-0.63
		c2.354,0.591,4.666,0.738,5.134,0.329c1.383-1.207,4.525-1.052,5.743,0.282c0.621,0.681,3.066,1.493,5.434,1.805
		c2.367,0.312,4.652,0.857,5.076,1.213c0.493,0.413,0.771,9.628,0.771,25.544v24.896h3.293c1.811,0,3.62-0.572,4.022-1.272
		c1.32-2.305,3.967-24.832,3.967-33.769c0-8.672,0.019-8.761,1.886-8.761c1.883,0,1.885,0.009,1.407,7.385
		c-0.262,4.062-0.772,7.821-1.133,8.354c-1.354,1.995-0.673,6.75,1.293,9.041c2.027,2.362,2.408,5.072,1.47,10.452
		c-0.692,3.966,0.992,6.534,4.285,6.534c1.282,0,2.975,0.787,3.761,1.751c1.087,1.332,2.912,1.782,7.593,1.875
		c3.39,0.066,6.945,0.688,7.902,1.382c0.956,0.694,2.229,1.005,2.828,0.694c0.6-0.312,1.664,0.34,2.365,1.449
		c1.122,1.773,2.226,2.014,9.193,2.002c10.144-0.018,11.158-0.402,11.675-4.428c0.227-1.76,0.657-14.189,0.959-27.624l0.549-24.425
		l2.257-0.938c1.24-0.516,3.322-1.557,4.626-2.314c1.304-0.757,3.229-1.376,4.278-1.376c1.689,0,1.968-0.535,2.423-4.642
		c0.358-3.24,1.041-5.109,2.258-6.189c0.959-0.852,1.849-2.756,1.978-4.232c0.26-3.015,1.994-4.024,7.188-4.19l3.196-0.101
		l0.163-25.721c0.089-14.147,0.173-28.79,0.188-32.542c0.015-3.749,0.364-7.236,0.777-7.75c0.667-0.825,5.572-2.18,15.043-4.157
		c2.833-0.591,3.031-0.86,3.385-4.622c0.207-2.197,0.757-4.165,1.224-4.372c1.231-0.55,1.905,2.595,1.029,4.809
		c-0.411,1.043-0.749,2.102-0.749,2.354c0,1.305,5.165,1.895,23.175,2.646c11.174,0.466,20.115,1.265,20.535,1.834
		c0.472,0.638,0.8,23.402,0.894,62.005l0.148,60.998l5.711-0.066c3.141-0.037,6.22-0.331,6.84-0.654
		c0.879-0.456,1.246-3.378,1.653-13.113c0.286-6.891,0.706-12.776,0.93-13.081c0.225-0.305,3.449-0.807,7.167-1.115
		c4.715-0.392,6.96-1.004,7.427-2.026c0.572-1.255,1.006-1.198,2.98,0.382c1.719,1.375,4.667,2.024,11.502,2.537l9.19,0.688
		l0.457,13.243c0.252,7.283,0.505,13.393,0.564,13.577c0.059,0.184,1.207,0.231,2.552,0.105c5.115-0.476,11.093,0.109,11.093,1.087
		c0,0.562-1.438,1.076-3.195,1.147l-3.196,0.126l3.384,0.817c1.861,0.448,4.783,0.849,6.495,0.891
		c2.429,0.059,3.372,0.618,4.31,2.556c0.784,1.62,2.055,2.592,3.659,2.801l2.459,0.321l0.204,20.119
		c0.124,12.256,0.491,20.119,0.939,20.119c0.405,0,0.736-1.36,0.736-3.021c0-3.611,1.7-5.122,5.78-5.144
		c4.374-0.021,6.083-0.961,6.575-3.618c0.247-1.33,1.122-2.908,1.944-3.504c1.541-1.117,2.08-4.068,0.743-4.068
		c-0.414,0-0.752-0.917-0.752-2.037c0-1.122,0.501-2.038,1.113-2.038c1.188,0,1.338-0.661,2.658-11.715
		c1.191-9.982,3.014-23.154,3.44-24.871c1.1-4.428,2.774,6.611,6.654,43.862c0.427,4.102,0.76,4.798,2.519,5.253
		c1.114,0.288,2.6,0.108,3.301-0.399c0.701-0.509,2.481-0.924,3.957-0.924c2.325,0,2.682,0.323,2.682,2.433
		c0,1.971,0.496,2.56,2.612,3.097c1.436,0.366,2.903,1.37,3.259,2.23c0.54,1.308,0.864,1.121,1.951-1.127
		c1.024-2.118,1.112-3.007,0.409-4.154c-0.696-1.138-0.666-1.834,0.138-3.154c0.805-1.319,0.825-1.787,0.093-2.121
		c-0.518-0.236-0.94-1.285-0.94-2.331s-0.556-2.322-1.234-2.836c-0.679-0.515-0.993-1.462-0.699-2.105
		c0.293-0.643,0.809-0.939,1.145-0.658c0.337,0.282,1.458-0.389,2.492-1.49s2.767-2.459,3.85-3.018
		c1.242-0.639,1.968-1.786,1.968-3.107c0-1.153,0.424-2.304,0.941-2.56c2.824-1.395,17.446-3.332,26.368-3.493
		c1.576-0.029,2.682-0.453,2.458-0.944c-0.472-1.034,1.671-10.067,2.565-10.816c0.332-0.277,1.511,0.132,2.62,0.91
		c2.374,1.669,7.693,1.051,9.528-1.108c0.822-0.967,2.711-1.379,5.652-1.235c4.174,0.205,6.255-0.654,9.284-3.83
		c0.621-0.65,3.07-1.108,5.443-1.019c3.956,0.15,4.58,0.511,7.521,4.341c3.193,4.158,3.237,4.179,10.403,4.799
		c3.958,0.343,7.728,0.898,8.378,1.237c0.822,0.428,1.343,2.616,1.701,7.171c0.537,6.779,1.27,8.026,2.656,4.517
		c0.442-1.119,0.654-2.036,0.47-2.036c-0.184,0,0.131-2.637,0.699-5.858c0.569-3.222,1.086-10.67,1.149-16.553
		s0.331-12.071,0.594-13.753c0.43-2.744,0.805-3.088,3.673-3.369c3.003-0.294,3.192-0.496,3.192-3.404
		c0-2.237,0.417-3.242,1.504-3.626c0.945-0.335,1.505-1.391,1.505-2.837c0-3.362,1.749-4.795,5.415-4.434l3.234,0.32l0.222-6.849
		c0.187-5.739,0.478-7.033,1.803-7.993c2.059-1.492,3.099,0.736,3.616,7.744l0.376,5.094l5.474,0.662
		c6.378,0.771,7.688,1.895,7.688,6.593c0,1.893,0.339,3.44,0.753,3.44c0.413,0,0.751-0.687,0.751-1.527
		c0-1.131,0.879-1.528,3.386-1.528c2.882,0,3.384,0.302,3.384,2.038c0,3.715,4.565,8.148,8.392,8.148
		c1.475,0,1.516-0.498,1.268-15.126c-0.181-10.571-0.556-15.61-1.248-16.739c-0.825-1.346-0.788-2.031,0.227-4.129
		c1.918-3.964,2.722-19.187,2.591-49.063l-0.12-27.504l3.191-9.168c1.756-5.043,4.535-13.015,6.177-17.717
		c2.256-6.461,2.873-9.302,2.53-11.627c-0.295-2.003-0.074-3.645,0.635-4.706c0.835-1.25,1.207-6.382,1.59-21.99
		c0.275-11.198,0.682-20.766,0.904-21.262c0.978-2.187,2.396,4.561,2.437,11.598c0.025,4.202,0.381,9.474,0.792,11.715
		c0.41,2.241,0.868,7.876,1.017,12.522c0.148,4.646,0.444,8.683,0.656,8.97c0.35,0.472,15.685,2.516,21.236,2.828l2.256,0.128
		l0.198-7.131c0.109-3.923,0.506-8.048,0.882-9.168c0.377-1.121,0.886-6.506,1.133-11.966c0.422-9.321,1.453-15.029,2.717-15.029
		c1.168,0,1.414,3.523,1.075,15.355c-0.212,7.351-0.018,13.976,0.482,16.536c0.46,2.35,0.792,5.646,0.739,7.327
		c-0.052,1.681-0.12,4.431-0.149,6.112c-0.032,1.881,2.421,9.907,6.384,20.883l6.438,17.825l-0.603,25.978
		c-0.364,15.751-0.321,27.78,0.108,30.56c0.39,2.521,0.772,20.399,0.852,39.728c0.194,47.86,0.108,45.84,1.932,45.84
		c1.606,0,2.1-2.617,0.62-3.286c-0.488-0.221-0.633-0.953-0.325-1.63c0.763-1.669,1.962-0.507,1.962,1.9
		c0,2.267,3.855,4.157,4.354,2.134c0.182-0.738,1.297-0.014,2.887,1.876c1.424,1.694,3.255,3.08,4.067,3.08s1.479,0.418,1.479,0.929
		c0,1.386,2.121,0.699,3.78-1.225c0.802-0.93,1.977-1.422,2.609-1.093c1.368,0.711,3.312-1.263,4.137-4.2
		c0.464-1.653,1.324-2.15,3.997-2.309c2.007-0.117,4.805-1.258,6.808-2.773c1.871-1.414,4.269-2.571,5.325-2.571
		c1.637,0,1.924,0.457,1.924,3.056c0,1.681,0.34,3.056,0.753,3.056s0.757-0.573,0.764-1.273c0.007-0.881,0.182-0.928,0.563-0.152
		c0.305,0.616,1.307,1.659,2.228,2.316c1.409,1.005,1.605,0.949,1.238-0.349c-0.584-2.062,1.679-3.162,3.137-1.523
		c0.939,1.056,1.324,0.945,2.172-0.622c0.566-1.048,0.91-2.744,0.764-3.768c-0.145-1.022,0.228-2.115,0.829-2.429
		c0.87-0.452,1.104-3.182,1.152-13.446c0.033-7.083,0.456-14.939,0.939-17.457c0.846-4.4,1.018-4.613,4.398-5.446
		c3.331-0.819,3.538-1.064,3.89-4.589c0.204-2.048,0.417-6.015,0.472-8.815c0.12-6.017,0.943-7.6,3.034-5.832
		c2.531,2.141,7.222,1.551,9.223-1.161c1.656-2.241,2.043-2.334,5.633-1.337c2.121,0.588,3.707,1.395,3.526,1.791
		c-1.003,2.195,5.522,2.591,7.603,0.46c1.683-1.724,6.875-1.962,11.237-0.514c5.308,1.76,17.761,2.296,20.886,0.899
		c2.178-0.973,3.061-0.993,3.732-0.083c1.084,1.469,7.637,1.633,6.972,0.174c-1.046-2.29,8.823-0.104,10.642,2.357
		c0.283,0.384,1.236,0.698,2.119,0.698c2.485,0,3.409,2.006,3.409,7.403c0,4.513,0.137,4.898,1.521,4.304
		c2.366-1.018,5.924,0.458,6.868,2.847c0.535,1.353,0.826,7.53,0.777,16.479c-0.047,8.391,0.242,14.942,0.699,15.833
		c0.587,1.146,0.872,1.207,1.161,0.248c0.464-1.553,3.225-1.643,4.768-0.153c0.851,0.82,0.479,0.936-1.504,0.47
		c-2.538-0.596-2.574-0.562-0.985,0.948c1.937,1.842,7.754,2.841,7.754,1.331c0-0.567,0.503-0.771,1.117-0.451
		c0.659,0.343,1.445-0.251,1.918-1.447c0.44-1.116,1.113-1.767,1.494-1.448c0.768,0.642,4.496-2.331,4.496-3.583
		c0-0.433-0.422-0.767-0.939-0.74c-2.617,0.132-4.325-0.379-4.325-1.293c0-0.561,0.793-1.019,1.764-1.019s2.382-0.926,3.139-2.057
		c1.272-1.904,1.604-4.205,2.097-14.549c0.101-2.13,0.613-4.233,1.14-4.673c1.145-0.957,1.894-11.142,1.259-17.123
		c-0.354-3.354-0.709-4.144-1.642-3.658c-1.281,0.665-1.277,0.643,0.838-4.977c1.33-3.534,1.34-3.944,0.162-7.305
		c-0.687-1.957-1.456-4.972-1.711-6.697c-0.439-2.978,0.026-3.693,2.137-3.273c0.293,0.059,0.732-1.376,0.978-3.189
		c0.579-4.285,0.776-51.757,0.3-72.056c-0.204-8.685-0.092-21.379,0.252-28.209c0.758-15.127-0.219-36.776-1.716-38.029
		c-0.864-0.724-0.854-1.301,0.066-3.627c0.601-1.523,0.99-3.586,0.864-4.587c-0.383-3.077,2.543-4.383,10.912-4.864
		c2.131-0.122,2.468-0.552,2.904-3.704c0.527-3.808,0.834-3.989,6.103-3.617c3.049,0.217,3.168,0.106,3.943-3.683
		c0.441-2.148,0.804-4.903,0.806-6.124c0.005-2.524,3.271-6.44,5.37-6.44c1.131,0,1.403-0.774,1.403-3.99
		c0-5.523,0.624-7.215,2.664-7.215c0.963,0,2.618-0.448,3.681-0.993c1.825-0.939,1.929-1.392,1.937-8.404
		c0.005-4.075,0.221-9.147,0.48-11.272c0.449-3.688,0.509-3.757,1.329-1.527c0.644,1.746,1.502,2.333,3.415,2.333
		c2.198,0,2.64-0.424,3.152-3.015c0.402-2.038,0.298-3.27-0.322-3.804c-1.412-1.216-5.399-0.966-6.408,0.401
		c-0.701,0.95-0.902,0.123-0.902-3.724c0-4.726,0.061-4.871,1.375-3.259c0.907,1.11,2.701,1.686,5.265,1.686
		c3.618,0,3.898-0.179,4.004-2.547c0.062-1.4,0.146-3.119,0.188-3.82c0.054-0.914-1.515-1.273-5.566-1.273h-5.641l-0.236-3.311
		c-0.225-3.161,0.754-4.451,1.74-2.292c0.674,1.477,6.169,1.263,6.563-0.255c0.181-0.7,0.116-2.419-0.145-3.819
		c-0.424-2.271-0.88-2.556-4.198-2.631l-3.725-0.084l-0.23-5.985c-0.403-10.494-0.305-10.654,6.612-10.654
		c5.265,0,6.073,0.249,6.805,2.099c1.136,2.874,3.896,2.221,4.571-1.08c0.285-1.401,0.559-8.506,0.606-15.79
		c0.087-13.268,0.713-17.354,2.325-15.17c0.506,0.686,0.877,7.042,0.971,16.583c0.162,16.525,0.363,17.383,4.101,17.417
		c1.153,0.011,1.692,0.628,1.692,1.944c0,2.019-1.385,3.165-3.822,3.165c-1.461,0-1.746,0.897-1.456,4.584
		c0.247,3.146,1.574,4.716,3.709,4.38c1.509-0.237,1.945,0.144,1.945,1.699c0,1.546-0.733,2.202-3.197,2.861
		c-2.644,0.708-3.196,1.259-3.196,3.186c0,3.522,2.482,6.153,4.457,4.722c1.373-0.994,1.672-0.791,2.34,1.589
		c0.422,1.501,1.603,4.075,2.626,5.722c2.412,3.885,2.351,5.681-0.21,6.079c-2.656,0.414-3.202,4.185-1.056,7.298
		c1.005,1.457,1.69,4.34,2.043,8.596c0.36,4.355,0.925,6.69,1.767,7.3c0.68,0.493,3.925,1.401,7.211,2.021
		c3.285,0.619,6.322,1.598,6.748,2.177c0.435,0.589,0.702,4.719,0.61,9.401c-0.238,12.07-0.091,12.575,3.899,13.385
		c3.664,0.745,4.165,1.364,4.869,6.025c0.463,3.068,0.5,3.09,5.708,3.208c2.884,0.066,5.819,0.477,6.522,0.911
		c0.705,0.435,1.7,0.44,2.212,0.012c1.446-1.211,18.164-1.439,19.212-0.263c0.504,0.566,1.587,0.741,2.406,0.389
		c2.089-0.897,27.229-1.228,27.623-0.362c0.178,0.391,1.078,0.443,2,0.12c0.922-0.325,2.726-0.685,4.007-0.801
		c1.282-0.115,2.724-0.539,3.204-0.941c0.479-0.401,1.462-0.493,2.182-0.202c2.582,1.042,11.979,0.893,19.612-0.312
		c6.754-1.064,8.005-1.021,9.533,0.338c0.969,0.857,1.871,1.151,2.005,0.651c0.134-0.499,4.137-1.228,8.895-1.618
		c4.757-0.392,8.852-0.871,9.099-1.066c0.248-0.196,4.038-0.817,8.421-1.38c5.403-0.693,8.891-1.689,10.821-3.091
		c1.567-1.138,3.336-2.067,3.93-2.067s1.678-0.733,2.408-1.629c0.729-0.896,1.688-1.327,2.127-0.959
		c0.562,0.472,0.8,154.243,0.8,519.617V2712H969.246H-5.508V2302.667L-5.508,2302.667z M1155.685,1945.725
		c0.11-5.176,0.455-9.875,0.767-10.441c0.309-0.567,0.612-3.163,0.675-5.768c0.101-4.248-0.041-4.683-1.373-4.211
		c-0.815,0.289-1.504,1.275-1.529,2.189c-0.596,22.165-0.529,27.64,0.329,27.64
		C1155.213,1955.134,1155.544,1952.385,1155.685,1945.725z M1514.537,1930.687c0-0.561-0.508-1.02-1.129-1.02
		c-0.62,0-1.128,0.459-1.128,1.02c0,0.56,0.508,1.019,1.128,1.019C1514.029,1931.705,1514.537,1931.246,1514.537,1930.687z
		 M1537.959,1928.649c2.133,0,3.305-1.351,2.569-2.962c-0.239-0.523-2.042-0.222-4.16,0.695c-3.007,1.301-3.571,1.889-2.89,3.004
		c0.59,0.962,1.092,1.062,1.634,0.324C1535.544,1929.127,1536.825,1928.649,1537.959,1928.649z M114.08,1914.897
		c0-0.841-0.549-1.527-1.22-1.527c-1,0-1.051,0.276-0.284,1.527C113.755,1916.822,114.08,1916.822,114.08,1914.897z M8.971,1911.926
		c0.104-0.514-0.235-1.125-0.752-1.358c-0.518-0.233-0.94,0.34-0.94,1.273C7.278,1913.566,8.627,1913.634,8.971,1911.926z
		 M109.567,1909.295c0-0.561-0.339-1.019-0.752-1.019c-0.414,0-0.752,0.458-0.752,1.019s0.338,1.018,0.752,1.018
		C109.229,1910.312,109.567,1909.855,109.567,1909.295z M101.67,1896.562c0-0.561-1.269-1.161-2.82-1.336
		c-2.645-0.296-3.52,0.56-2.284,2.232C97.35,1898.52,101.67,1897.76,101.67,1896.562z M113.784,1894.194
		c0.079-2.134-0.23-3.235-0.906-3.235c-1.173,0-2.207,4.41-1.432,6.107C112.369,1899.092,113.661,1897.504,113.784,1894.194z
		 M106.551,1895.556c0.511-0.833,0.714-2.271,0.453-3.194c-0.436-1.538-0.602-1.526-1.965,0.145
		c-0.818,1.004-1.488,2.441-1.488,3.194C103.55,1897.533,105.394,1897.444,106.551,1895.556z M117.84,1893.954
		c0-0.527-0.507-0.958-1.128-0.958c-1.163,0-1.494,1.201-0.647,2.35C116.666,1896.159,117.84,1895.238,117.84,1893.954z
		 M100.34,1886.884c0.253,0,1.08,0.761,1.838,1.689c1.933,2.369,5.133,0.414,5.133-3.135c0-3.245-1.049-4.06-3.181-2.468
		c-0.939,0.701-2.3,1.152-3.024,1.002c-0.724-0.149-1.316,0.183-1.316,0.739s-0.723,1.159-1.606,1.337
		c-0.883,0.179-2.108,1.355-2.723,2.615c-1.062,2.178-0.993,2.361,1.418,3.741l2.535,1.451l0.233-3.486
		C99.775,1888.453,100.087,1886.884,100.34,1886.884z M210.352,1892.037c0-0.526-0.339-1.241-0.752-1.588
		c-0.414-0.346-0.752,0.086-0.752,0.958c0,0.874,0.338,1.589,0.752,1.589C210.013,1892.996,210.352,1892.564,210.352,1892.037z
		 M210.352,1884.847c0-1.12-0.339-2.037-0.752-2.037c-0.414,0-0.752,0.917-0.752,2.037c0,1.121,0.338,2.037,0.752,2.037
		C210.013,1886.884,210.352,1885.968,210.352,1884.847z M112.764,1884.323c-0.277-1.48-1.89-1.222-2.28,0.366
		c-0.219,0.893,0.152,1.243,1.065,1.005C112.32,1885.492,112.868,1884.876,112.764,1884.323z M210.669,1875.122
		c0.532-2.869-0.038-4.892-1.122-3.984c-0.895,0.75-0.92,6.579-0.029,6.579C209.887,1877.717,210.405,1876.549,210.669,1875.122z
		 M1808.618,1833.913c0-0.56-0.509-1.018-1.129-1.018s-1.128,0.458-1.128,1.018c0,0.562,0.508,1.02,1.128,1.02
		S1808.618,1834.475,1808.618,1833.913z M1801.974,1829.945c0.138-0.502,3.974-1.176,8.524-1.498
		c4.551-0.321,10.643-1.296,13.537-2.165c2.896-0.868,8.988-1.757,13.54-1.973c4.55-0.217,8.799-0.679,9.44-1.029
		c0.643-0.35,1.762-1.995,2.486-3.656c1.181-2.709,1.348-7.235,1.614-43.934c0.233-32.114,0.508-41.094,1.274-41.753
		c1.022-0.878,3.231-1.068,14.639-1.264c3.79-0.063,7.16-0.479,7.49-0.924s0.52-4.81,0.424-9.703
		c-0.119-6.003,0.136-9.421,0.783-10.514c0.652-1.104,3.325-1.995,8.392-2.8c4.09-0.65,7.696-1.401,8.015-1.668
		c1.131-0.946-0.184-4.327-2.161-5.559c-1.163-0.725-4.925-1.212-8.962-1.162c-5.672,0.069-6.958-0.193-6.958-1.423
		c0-1.98-0.484-1.904-2.933,0.457c-1.321,1.274-2.408,1.655-3.09,1.085c-0.577-0.482-1.351-0.628-1.718-0.321
		c-0.589,0.495-3.999,0.504-20.088,0.058c-2.274-0.063-5.32-0.047-6.77,0.036c-1.447,0.084-4.324,0.152-6.393,0.154
		s-5.96,0.082-8.649,0.18c-2.688,0.097-6.412,0.106-8.273,0.021c-4.654-0.212-16.114,0.579-20.768,1.434l-3.845,0.706l-0.48,7.682
		c-0.615,9.844-0.63,112.041-0.018,116.188c0.399,2.701,0.837,3.183,3.196,3.521
		C1799.593,1830.894,1801.727,1830.845,1801.974,1829.945z M1742.301,1639.989c0.32-3.789-0.739-5.246-2.753-3.787
		c-1.322,0.958-1.747,4.064-0.963,7.038c0.047,0.18,0.847,0.18,1.777,0C1741.595,1643.004,1742.122,1642.12,1742.301,1639.989z
		 M1745.439,1628.204c0-1.647-0.338-3.279-0.752-3.625c-0.448-0.375-0.753,0.838-0.753,2.995c0,1.994,0.339,3.627,0.753,3.627
		S1745.439,1629.852,1745.439,1628.204z M1750.834,1625.44c1.874-2.3,1.729-5.083-0.305-5.803c-2.221-0.786-2.752,0.182-2.291,4.178
		C1748.673,1627.602,1748.936,1627.767,1750.834,1625.44z M1759.729,1621.414c0-0.78-0.678-1.419-1.504-1.419
		c-1.417,0-2.045,1.983-1.055,3.325C1757.902,1624.312,1759.729,1622.95,1759.729,1621.414z M1752.059,1611.642
		c0.495-0.672,0.902-2.276,0.902-3.565c0-2.318-0.152-2.409-4.661-2.802c-0.702-0.062-1.521-0.441-1.817-0.845
		c-0.95-1.286-2.548-0.788-2.548,0.795c0,0.856,0.672,1.527,1.528,1.527c1.382,0,1.733,0.639,2.657,4.839
		C1748.477,1613.21,1750.877,1613.241,1752.059,1611.642z M1751.291,1599.367c0.751-1.241,1.179-4.057,1.004-6.621
		c-0.049-0.71-1.085-1.273-2.344-1.273c-2.114,0-2.256,0.245-2.256,3.904c0,2.147,0.226,4.211,0.502,4.585
		C1748.989,1601.035,1750.451,1600.755,1751.291,1599.367z M1746.191,1591.891c0-5.504-1.264-6.301-7.71-4.857
		c-2.347,0.525-2.819,1.042-2.819,3.077c0,3.018,2.066,4.249,6.957,4.146C1745.805,1594.189,1746.191,1593.934,1746.191,1591.891z
		 M342.726,1565.497c0-0.775-0.338-1.691-0.752-2.038c-0.428-0.358-0.752,0.519-0.752,2.038c0,1.518,0.324,2.395,0.752,2.036
		C342.388,1567.188,342.726,1566.271,342.726,1565.497z M350.247,1561.812c0-0.561-0.338-0.735-0.752-0.39
		c-0.413,0.346-0.752,1.088-0.752,1.648s0.339,0.735,0.752,0.389C349.909,1563.112,350.247,1562.371,350.247,1561.812z
		 M352.737,1546.207c0.86-0.883,1.067-1.643,0.564-2.064c-1.211-1.014-0.953-3.733,0.491-5.163c1.098-1.087,1.137-1.521,0.268-2.94
		c-0.94-1.534-1.133-1.524-2.484,0.131c-1.399,1.716-1.508,1.715-2.452-0.035c-0.668-1.236-1.157-1.459-1.51-0.686
		c-0.287,0.629,0.079,2.043,0.813,3.141c1.023,1.531,1.127,2.277,0.45,3.196c-1.171,1.585-1.117,2.368,0.297,4.283
		C350.597,1547.998,350.979,1548.013,352.737,1546.207z M357.769,1545.123c0-0.84-0.508-1.527-1.128-1.527
		c-0.62,0-1.128,0.688-1.128,1.527s0.508,1.528,1.128,1.528C357.261,1546.651,357.769,1545.963,357.769,1545.123z M365.666,1537.482
		c-0.603-1.322-2.632-1.322-2.632,0c0,0.561,0.697,1.02,1.549,1.02S365.921,1538.043,365.666,1537.482z M355.18,1532.293
		c0.892-1.953-1.285-6.015-3.224-6.015c-1.007,0-1.593,0.448-1.333,1.018c0.255,0.562,0.106,1.019-0.332,1.019
		c-1.262,0-0.567,2.427,1.084,3.785C353.271,1533.658,354.528,1533.722,355.18,1532.293z M354.514,1524.009
		c3.499,0.534,4.75-0.483,4.725-3.843c-0.009-1.195-0.178-1.141-0.778,0.255c-0.97,2.257-2.641,2.298-3.269,0.081
		c-0.601-2.119,0.913-3.485,3.053-2.758c0.889,0.303,1.82,0.104,2.069-0.443c0.249-0.545-0.476-1.307-1.61-1.689
		c-1.135-0.383-2.658-1.424-3.385-2.312c-1.235-1.507-1.24-1.737-0.072-3.486c0.989-1.48,1.03-1.868,0.194-1.858
		c-2.356,0.032-4.404,1.284-3.913,2.395c0.282,0.637-0.069,0.52-0.779-0.261c-1.79-1.966-2.143-1.118-2.519,6.037
		c-0.329,6.276,0.725,10.271,2.187,8.291C350.795,1523.906,352.639,1523.723,354.514,1524.009z M361.153,1509.98
		c-0.596-1.307-1.128-1.307-1.128,0c0,0.559,0.358,1.018,0.796,1.018S361.409,1510.539,361.153,1509.98z M364.944,1504.818
		c0.692-1.518-0.11-2.342-1.55-1.593c-0.665,0.345-0.998,1.089-0.741,1.653C363.264,1506.215,364.32,1506.188,364.944,1504.818z
		 M350.82,1497.746c-0.528-1.146-1.068-1.543-1.227-0.901c-0.155,0.63,0.182,1.545,0.75,2.032
		C351.825,1500.146,351.874,1500.03,350.82,1497.746z M354.76,1494.131c0-2.19-1.519-2.821-3.438-1.43
		c-1.616,1.172-1.67,1.418-0.552,2.526C352.259,1496.703,354.76,1496.016,354.76,1494.131z M359.273,1494.699
		c0.912-0.799,0.804-0.99-0.564-1.004c-0.931-0.008-1.692,0.443-1.692,1.004C357.016,1495.977,357.815,1495.977,359.273,1494.699z
		 M1520.554,1924.021c0-1.563,0.255-2.427,0.563-1.92c0.311,0.507,0.835,1.198,1.165,1.533c0.329,0.337,0.075,1.2-0.564,1.919
		C1520.714,1926.681,1520.554,1926.47,1520.554,1924.021z M1680.756,1905.16c0-0.594-0.337-0.796-0.751-0.449
		c-0.415,0.346-0.753,0.193-0.753-0.34c0-0.534,0.509-1.234,1.128-1.557c0.768-0.399,1.129,0.055,1.129,1.419
		c0,1.103-0.169,2.006-0.376,2.006C1680.925,1906.239,1680.756,1905.754,1680.756,1905.16z M687.951,1901.91
		c-0.001-0.141-0.504-4.12-1.117-8.845c-1.125-8.652-1.089-9.946,0.24-8.834c0.955,0.799,3.37,15.573,2.764,16.902
		C689.431,1902.023,687.954,1902.631,687.951,1901.91z M1670.642,1892.064c-0.242-0.531-0.119-1.233,0.272-1.562
		c0.392-0.327,0.911-0.162,1.153,0.368c0.242,0.532,0.119,1.233-0.272,1.562C1671.403,1892.761,1670.885,1892.595,1670.642,1892.064
		z M1670.676,1886.135c-0.82-1.11-0.467-2.222,1.055-3.325c1.263-0.915,1.505-0.774,1.505,0.873
		C1673.235,1885.646,1671.524,1887.284,1670.676,1886.135z M62.936,1876.128c0-0.873,0.338-1.305,0.752-0.958
		c0.973,0.814,0.973,2.547,0,2.547C63.274,1877.717,62.936,1877.001,62.936,1876.128z M79.482,1874.72
		c0-0.526,0.338-1.241,0.752-1.588c0.414-0.346,0.752,0.085,0.752,0.959c0,0.873-0.338,1.588-0.752,1.588
		C79.82,1875.679,79.482,1875.247,79.482,1874.72z M75.746,1869.348c0.023-1.277,2.232-5.872,2.232-4.643
		c0,0.341,0.195,1.311,0.435,2.153c0.262,0.929-0.183,1.98-1.128,2.667C76.078,1870.398,75.727,1870.359,75.746,1869.348z
		 M68.224,1863.111c-0.015-1.159,0.834-2.31,2.233-3.024c1.241-0.635,2.256-1.511,2.256-1.948c0-0.438,0.508-0.796,1.128-0.796
		c1.758,0,1.325,2.732-0.564,3.557c-0.931,0.406-1.984,0.671-2.341,0.59c-0.356-0.081-1.107,0.672-1.668,1.672
		C68.292,1864.905,68.247,1864.902,68.224,1863.111z M95.277,1856.514c0-0.533,0.859-1.193,1.91-1.465
		c1.205-0.312,1.808-0.074,1.633,0.645C98.477,1857.107,95.277,1857.849,95.277,1856.514z M68.952,1853.838
		c0-0.808,0.303-1.722,0.673-2.032c0.774-0.647,1.708,1.973,1.03,2.892C69.849,1855.79,68.952,1855.338,68.952,1853.838z
		 M75.722,1853.703c0-0.949,0.512-1.468,1.254-1.273c1.887,0.496,2.146,2.876,0.313,2.876
		C76.365,1855.306,75.722,1854.647,75.722,1853.703z M115.523,1845.883c-0.034-0.141-0.129-1.516-0.212-3.056
		c-0.195-3.599,1.942-3.832,3.116-0.341c0.667,1.982,0.605,2.577-0.316,3.057C116.927,1846.157,115.629,1846.328,115.523,1845.883z
		 M941.607,1816.087c-0.008-2.241,0.139-3.277,0.328-2.304c0.188,0.974,0.195,2.808,0.015,4.074
		C941.77,1819.125,941.616,1818.328,941.607,1816.087z M652.132,1809.506c0.275-4.46,0.692-19.015,0.926-32.342
		c0.468-26.556,1.782-35.145,1.912-12.49c0.096,16.972,0.074,21.44-0.155,30.786c-0.099,4.062,0.066,10.045,0.366,13.296
		c0.573,6.194-0.149,8.859-2.404,8.859C651.807,1817.615,651.709,1816.382,652.132,1809.506z M128.429,1753.016
		c-0.032-1.074,0.146-1.677,0.396-1.338c0.25,0.339,0.276,1.218,0.06,1.953C128.644,1754.442,128.466,1754.201,128.429,1753.016z
		 M548.808,1695.315c0-1.818,0.313-2.854,0.752-2.486c0.979,0.82,0.979,5.603,0,5.603
		C549.147,1698.432,548.808,1697.03,548.808,1695.315z M338.965,1539.351c0-2.895,0.124-5.071,0.276-4.839
		c0.64,0.985,0.987,10.103,0.383,10.103C339.262,1544.614,338.965,1542.245,338.965,1539.351z M338.761,1531.774
		c-0.301-0.408-0.508-3.302-0.46-6.431l0.088-5.688l0.679,5.544C339.778,1531.002,339.684,1533.023,338.761,1531.774z
		 M375.938,1528.314c0-1.4,0.171-1.973,0.379-1.272s0.208,1.847,0,2.547S375.938,1529.716,375.938,1528.314z M375.819,1522.773
		c0-1.789,0.452-2.053,1.096-0.641c0.238,0.521,0.088,1.236-0.332,1.588C376.164,1524.073,375.819,1523.646,375.819,1522.773z
		 M337.364,1509.215c-0.053-2.101-0.192-5.768-0.31-8.148c-0.117-2.382,0.097-4.33,0.474-4.33s0.689,2.636,0.695,5.857
		s0.214,6.889,0.464,8.15c0.272,1.375,0.117,2.291-0.386,2.291C337.839,1513.035,337.417,1511.316,337.364,1509.215z
		 M340.481,1488.902c0.008-3.539,0.214-4.475,0.74-3.371c0.956,2.005,0.956,6.84,0,7.641
		C340.76,1493.559,340.474,1491.912,340.481,1488.902z M372.87,1490.2c-0.033-1.073,0.146-1.675,0.395-1.337
		c0.25,0.339,0.277,1.218,0.06,1.953C373.085,1491.629,372.907,1491.387,372.87,1490.2z M1174.576,1161.088
		c0-2.844,1.822-3.512,2.552-0.935c0.763,2.691,0.526,3.482-1.048,3.482C1174.977,1163.635,1174.576,1162.956,1174.576,1161.088z"/>
</g>
<g>
	<circle fill="#3E3947" cx="971.426" cy="1038.899" r="423.812"/>
	<g>
		<rect x="769.5" y="988.5" fill="#E5B823" width="404" height="106"/>
		<rect x="769.5" y="838.5" fill="#658FCA" width="404" height="106"/>
		<rect x="769.5" y="1134.5" fill="#F0688F" width="404" height="106"/>
	</g>
	<rect x="949.5" y="983.5" fill="#3E3947" width="44" height="116"/>
</g>
</svg>
